<svg width="26" height="26" viewBox="0 0 26 26" fill="none" xmlns="http://www.w3.org/2000/svg">
<g clip-path="url(#clip0_5239_3505)">
<path d="M13 25.5C19.9036 25.5 25.5 19.9036 25.5 13C25.5 6.09644 19.9036 0.5 13 0.5C6.09644 0.5 0.5 6.09644 0.5 13C0.5 19.9036 6.09644 25.5 13 25.5Z" fill="#111214" stroke="#111214" stroke-miterlimit="10"/>
<path d="M3.35938 11.9834L3.54552 11.8459C3.64429 11.9781 3.74383 12.1103 3.8426 12.2418C3.85476 12.2 3.87907 12.1377 3.92542 12.0731C3.93453 12.0602 3.96113 12.0252 4.00367 11.9865C4.05762 11.9371 4.16171 11.8429 4.31747 11.83C4.43447 11.8201 4.52261 11.8611 4.54388 11.871C4.59327 11.8945 4.62898 11.9242 4.65177 11.9462L5.0499 12.5373L4.86527 12.6604C4.86527 12.6604 4.66545 12.1795 4.44739 12.0883C4.42308 12.0784 4.23769 12.0039 4.09029 12.1103C3.94973 12.2114 3.95201 12.3983 3.95201 12.4195L4.34558 13.0031C4.28403 13.0479 4.22249 13.092 4.16095 13.1368" fill="#FBF5E2"/>
<path d="M4.88246 11.7821C4.95464 11.7486 5.02606 11.716 5.09824 11.6825C5.09596 11.6514 5.08988 11.504 5.19777 11.3839C5.22436 11.3551 5.2973 11.2761 5.41963 11.2639C5.54575 11.2517 5.63617 11.3186 5.65668 11.3346C5.40367 11.4972 5.25931 11.6727 5.18105 11.7859C5.04353 11.9865 5.06177 12.0655 5.07696 12.0974C5.08988 12.1247 5.14003 12.2007 5.22512 12.2623C5.33301 12.3398 5.63769 12.2425 5.81472 12.0313L5.97883 11.7828L6.08216 11.8527L6.2987 11.7205C6.2987 11.7205 6.18701 11.6772 6.08976 11.5359C5.93248 11.308 5.91729 11.159 5.76305 11.0747C5.66124 11.0185 5.55563 11.0352 5.46066 11.0496C5.18409 11.0922 5.00554 11.3011 4.93792 11.4364C4.89537 11.5222 4.8817 11.6088 4.8817 11.6088C4.8703 11.6803 4.87562 11.7403 4.8817 11.7813L4.88246 11.7821Z" fill="#FBF5E2"/>
<path d="M5.75348 11.4781C5.75348 11.4781 5.86669 11.6172 5.84466 11.7015C5.82262 11.7859 5.73145 11.9036 5.73145 11.9036C5.73145 11.9036 5.66003 11.9933 5.60685 12.026C5.55366 12.0586 5.43817 12.0829 5.40778 12.067C5.37739 12.051 5.31205 12.0077 5.30597 11.9652C5.29989 11.9226 5.31433 11.9059 5.37283 11.8428C5.43133 11.7798 5.75348 11.4781 5.75348 11.4781Z" fill="#111214"/>
<path d="M5.9375 10.7328L6.14036 10.5877L6.72084 11.4409C6.65398 11.4865 6.58636 11.5329 6.5195 11.5785C6.32575 11.2966 6.132 11.0147 5.93826 10.7328H5.9375Z" fill="#FBF5E2"/>
<path d="M5.84661 10.5755L6.03048 10.4578L5.91499 10.2815L5.72656 10.4084L5.84661 10.5755Z" fill="#FBF5E2"/>
<path d="M6.99074 11.2547L7.18221 11.1195L6.82207 10.5876C6.81599 10.5679 6.78484 10.4554 6.84942 10.3476C6.90564 10.2533 7.01277 10.1979 7.1275 10.2017C7.10243 10.1493 7.0766 10.0968 7.05152 10.0436C7.00746 10.049 6.97327 10.0596 6.94971 10.068C6.9368 10.0725 6.73393 10.1515 6.68075 10.3445C6.67315 10.3726 6.67011 10.3969 6.66859 10.4121L6.59185 10.2944L6.41406 10.4266L6.98998 11.2532L6.99074 11.2547Z" fill="#FBF5E2"/>
<path d="M7.73809 11.2229L7.64844 11.0983L10.1018 9.48981L10.1778 9.60985L7.73809 11.2229Z" fill="#FBF5E2"/>
<path d="M9.98604 8.74594L10.783 8.19282C10.7481 8.12976 10.6736 8.01883 10.5392 7.95956C10.2626 7.83876 9.97844 8.04466 9.91841 8.08797C9.84168 8.14343 9.71479 8.23537 9.66616 8.40936C9.66009 8.43139 9.59095 8.69428 9.77481 8.89942C9.9131 9.05366 10.1106 9.08101 10.2406 9.06201C10.3219 9.04986 10.3872 9.01719 10.451 8.98604C10.5027 8.9602 10.5931 8.91461 10.6843 8.82496C10.7595 8.75126 10.8689 8.64337 10.878 8.49825C10.878 8.49825 10.878 8.49141 10.8735 8.32502L10.6265 8.43747C10.6357 8.4785 10.6425 8.5408 10.622 8.60842C10.5673 8.78849 10.3424 8.91993 10.1562 8.86523C10.1228 8.85535 10.0521 8.82876 9.98604 8.7467V8.74594Z" fill="#FBF5E2"/>
<path d="M9.91234 8.61985L10.4829 8.22324C10.4639 8.19893 10.4343 8.16778 10.3895 8.14422C10.2672 8.07888 10.1175 8.11687 10.0217 8.18373C9.99971 8.19893 9.84928 8.30758 9.85991 8.47397C9.86447 8.54083 9.89258 8.59174 9.91234 8.61985Z" fill="#111214"/>
<path d="M10.5156 7.506C10.5232 7.48472 10.5567 7.40343 10.638 7.37379C10.6965 7.35176 10.7504 7.36848 10.7891 7.38139C10.9327 7.42774 10.9343 7.51967 11.0695 7.5759C11.0862 7.58274 11.2291 7.63744 11.3119 7.5759C11.3119 7.5759 11.3894 7.51815 11.3332 6.97187C11.3309 6.96503 11.3126 6.90881 11.3453 6.86322C11.3689 6.82979 11.4046 6.82219 11.4221 6.81839C11.4221 6.81839 11.4995 6.8032 11.5922 6.87386C11.7009 6.95667 11.7123 7.22792 11.6287 7.5531C11.7184 7.55994 11.7921 7.57514 11.8483 7.58957C12.0625 7.6458 12.2609 7.76053 12.2609 7.76053C12.3414 7.79775 12.39 7.87145 12.3832 7.94211C12.3763 8.00898 12.3178 8.05152 12.3118 8.05532C12.1294 8.18145 11.7822 7.81447 11.6355 7.91476C11.4882 8.01505 11.7244 8.46105 11.5383 8.60617C11.4699 8.65935 11.3651 8.65555 11.302 8.61756C11.1637 8.53627 11.1326 8.24679 11.2845 7.90033C11.0513 7.90185 10.8803 7.85322 10.7778 7.81447C10.6288 7.75825 10.5726 7.7043 10.5422 7.64352C10.5171 7.59185 10.5149 7.54171 10.5179 7.50676L10.5156 7.506Z" fill="#E30613"/>
<path d="M12.148 6.77276C12.1639 6.73249 12.2771 6.45973 12.5628 6.37539C12.6145 6.3602 12.8128 6.30169 12.9921 6.4149C13.214 6.5547 13.2132 6.83734 13.2124 6.87533C13.2102 7.0007 13.1653 7.09643 13.1357 7.14809C13.1137 7.18684 13.0392 7.31069 12.8964 7.37299C12.7718 7.42769 12.6069 7.42921 12.6046 7.42997L12.8386 7.84482L12.638 7.9641L11.8828 6.80011L12.0788 6.66791L12.148 6.77352V6.77276Z" fill="#FBF5E2"/>
<path d="M12.4726 6.56839C12.4863 6.56155 12.6368 6.48709 12.7933 6.56231C12.9657 6.64512 12.9954 6.83583 13.0007 6.89357C13.0045 6.93156 13.0159 7.05921 12.93 7.16406C12.8776 7.22788 12.813 7.25295 12.7842 7.26359C12.7568 7.27423 12.6246 7.31981 12.4856 7.25143C12.4856 7.25143 12.3176 7.16938 12.2804 6.96575C12.2766 6.94676 12.2713 6.91333 12.2743 6.87078C12.288 6.70059 12.4331 6.59422 12.4719 6.56763L12.4726 6.56839Z" fill="#111214"/>
<path d="M13.5203 6.38686L14.3173 5.83374C14.2945 5.78967 14.2231 5.6643 14.0734 5.60048C13.9268 5.53818 13.7946 5.57161 13.714 5.59212C13.4785 5.65139 13.3372 5.8155 13.2825 5.88616C13.2825 5.88616 13.227 5.96062 13.1996 6.05027C13.1639 6.16804 13.1632 6.3785 13.3083 6.54034C13.4473 6.69533 13.6456 6.72193 13.774 6.70293C13.8553 6.69077 13.9207 6.6581 13.9845 6.62695C14.0992 6.56997 14.1775 6.50387 14.2178 6.46588C14.2595 6.42637 14.3036 6.38458 14.3439 6.31696C14.3705 6.27213 14.4031 6.21743 14.4115 6.13993C14.4214 6.0442 14.3879 5.96746 14.3667 5.92795C14.2975 5.97809 14.2284 6.02824 14.16 6.07915C14.1676 6.11182 14.1782 6.1764 14.1555 6.2501C14.1289 6.33747 14.0711 6.38686 14.0324 6.42029C13.9997 6.4484 13.9344 6.50311 13.8409 6.51754C13.6677 6.54338 13.5355 6.40585 13.5195 6.38914L13.5203 6.38686Z" fill="#FBF5E2"/>
<path d="M14.8501 6.08672L15.0416 5.95147L14.6814 5.41962C14.6754 5.39987 14.645 5.28818 14.7088 5.17953C14.7954 5.03289 14.9717 5.03213 14.9793 5.03213C14.9398 4.98806 14.901 4.94324 14.8615 4.89917C14.8463 4.89917 14.6647 4.90829 14.5751 5.05721C14.5295 5.13318 14.5302 5.20916 14.5325 5.24335C14.5052 5.2046 14.4786 5.16661 14.4512 5.12787L14.2734 5.26007L14.8494 6.08672H14.8501Z" fill="#FBF5E2"/>
<path d="M13.4511 6.26071L14.0217 5.8641C13.9844 5.82155 13.9168 5.76077 13.8211 5.74633C13.6144 5.71594 13.391 5.92336 13.3986 6.11407C13.4009 6.17561 13.4275 6.22575 13.4511 6.25995V6.26071Z" fill="#111214"/>
<path d="M15.0745 4.7685L14.8906 4.49801C14.9423 4.46306 14.994 4.42887 15.0456 4.39392L15.231 4.65909C15.2781 4.62642 15.3252 4.59374 15.3723 4.56107C15.405 4.61122 15.4369 4.66213 15.4696 4.71227C15.4293 4.73962 15.3898 4.76622 15.3495 4.79357C15.4407 4.94097 15.5258 5.05721 15.5904 5.14079C15.7196 5.30794 15.7841 5.36341 15.8366 5.34973C15.8867 5.33682 15.9308 5.25856 15.9293 5.25704C15.9293 5.25704 15.9247 5.26008 15.9201 5.26388L16.0402 5.38164C16.0311 5.40064 15.9824 5.50245 15.8677 5.53892C15.7857 5.56475 15.715 5.54272 15.6907 5.53512C15.601 5.50549 15.5478 5.44167 15.5167 5.40216C15.3625 5.21069 15.2219 4.99263 15.1695 4.90906L15.0388 5.00251L14.921 4.86119L15.0745 4.7685Z" fill="#FBF5E2"/>
<path d="M4.9088 14.5477L4.39062 13.794L10.0161 10.0817L11.4794 12.2767C11.4794 12.2767 11.816 12.8868 11.7643 13.2705C11.7127 13.6542 11.7294 13.7697 11.5607 14.0432C11.3921 14.3167 11.3518 14.4147 11.1368 14.5773C10.9217 14.7399 10.7128 14.879 10.4925 14.9663C10.2721 15.0537 10.0799 15.1114 9.84817 15.1228C9.61643 15.1342 9.37178 15.1464 9.21527 15.094C9.05875 15.0415 8.67506 14.8091 8.67506 14.8091L7.04304 17.6081L6.4504 16.7374L8.0414 14.0721L7.28085 12.9916L4.9088 14.5477Z" fill="#FBC000"/>
<path d="M8.07812 12.4917L9.76485 11.3475L10.764 12.8518C10.7989 12.9453 10.8954 13.2401 10.764 13.5433C10.6682 13.7644 10.4973 13.8806 10.3461 13.9847C10.2093 14.0781 10.0346 14.1982 9.7884 14.2172C9.40547 14.2468 9.12055 14.0113 9.04533 13.9444C8.72318 13.4604 8.40103 12.9765 8.07888 12.4925L8.07812 12.4917Z" fill="#111214"/>
<path d="M9.86193 21.6836L7.60156 18.415L13.164 14.765L15.3673 18.0534L14.6098 18.5632L12.8806 16.0156L11.2516 17.0778L12.7104 19.2561L11.9483 19.7439L10.472 17.6081L8.89548 18.6285L10.6415 21.1632L9.86193 21.6836Z" fill="#FBC000"/>
<path d="M7.2117 17.7464L7.52549 18.2083L7.60603 18.1559L7.49054 17.9774L7.57336 17.9166L7.83016 18.0192L7.89095 17.9432L7.65769 17.83C7.66149 17.8193 7.69264 17.7327 7.64629 17.6651C7.59691 17.5922 7.47534 17.5678 7.36973 17.6317C7.31655 17.6704 7.26412 17.7084 7.21094 17.7471L7.2117 17.7464Z" fill="#FBF5E2"/>
<path d="M7.34375 17.7616L7.43189 17.8908L7.54813 17.8148C7.57548 17.7897 7.58384 17.7517 7.57017 17.7221C7.55269 17.6849 7.50331 17.6666 7.45924 17.6871L7.34375 17.7608V17.7616Z" fill="#111214"/>
<path d="M7.65625 17.4463L7.98068 17.9189L8.31422 17.6993L8.25344 17.6271L8.02703 17.773L7.95333 17.6621C8.01639 17.6172 8.07945 17.5716 8.14251 17.5268L8.09085 17.4463L7.89026 17.5853L7.80517 17.4653C7.88647 17.4121 7.967 17.3589 8.0483 17.3057L7.99663 17.2297L7.65701 17.4455L7.65625 17.4463Z" fill="#FBF5E2"/>
<path d="M8.56784 17.3133L8.62863 17.2677C8.67041 17.33 8.67269 17.4098 8.6347 17.4728C8.58532 17.5549 8.48882 17.5625 8.47287 17.564C8.42728 17.5678 8.39005 17.5564 8.36954 17.5481C8.32243 17.5237 8.24873 17.4751 8.19555 17.3893C8.16668 17.3422 8.13249 17.2867 8.14236 17.2138C8.15072 17.1507 8.18947 17.0861 8.25405 17.0527C8.33155 17.0124 8.42956 17.0261 8.50022 17.0861L8.45463 17.1355C8.39005 17.0914 8.31559 17.0907 8.27381 17.1264C8.22442 17.1689 8.24113 17.2479 8.24797 17.2791C8.26697 17.3688 8.34143 17.4706 8.43868 17.4728C8.45008 17.4728 8.52757 17.4751 8.56176 17.4174C8.5876 17.3733 8.57164 17.3239 8.56784 17.314V17.3133Z" fill="#FBF5E2"/>
<path d="M8.78875 16.7427C8.97946 16.7579 9.15421 17.001 9.09039 17.1469C9.05772 17.2206 8.96806 17.2624 8.89132 17.2669C8.77052 17.2738 8.6915 17.1864 8.66111 17.1515C8.60184 17.0854 8.51219 16.9372 8.57753 16.8316C8.62236 16.7594 8.72037 16.7374 8.78875 16.7435V16.7427Z" fill="#FBF5E2"/>
<path d="M8.71526 16.8582C8.7335 16.8521 8.76997 16.8422 8.81023 16.8551C8.82011 16.8582 8.8467 16.8673 8.89685 16.9235C8.95231 16.9858 9.00322 17.0421 8.9865 17.0952C8.97891 17.1188 8.96143 17.134 8.95383 17.1401C8.91812 17.1697 8.87558 17.1674 8.86266 17.1674C8.79732 17.1644 8.75401 17.1165 8.7297 17.0899C8.70918 17.0671 8.63244 16.9828 8.6636 16.9106C8.67499 16.884 8.69779 16.8673 8.71526 16.8582Z" fill="#111214"/>
<path d="M9.26031 17.0831C9.29374 17.0618 9.32717 17.0405 9.3606 17.0193L9.12203 16.7062L9.57258 16.8825L9.6554 16.8339L9.31805 16.3506L9.22004 16.4016L9.45558 16.726L9.0111 16.5474L8.90625 16.6044C9.02402 16.764 9.14254 16.9235 9.26031 17.0831Z" fill="#FBF5E2"/>
<path d="M9.66628 16.6325L9.68907 16.748C9.73238 16.7435 9.80684 16.7298 9.88434 16.6827C9.94816 16.6447 10.0325 16.5938 10.0386 16.5056C10.0431 16.4456 10.012 16.3765 9.95879 16.3499C9.9208 16.3309 9.88206 16.3392 9.81519 16.3529C9.7187 16.3727 9.69211 16.4038 9.64652 16.3871C9.61461 16.3757 9.58422 16.3446 9.58422 16.3142C9.58498 16.2504 9.70958 16.2154 9.7225 16.2116C9.74757 16.2048 9.76961 16.2017 9.78632 16.201L9.76961 16.1075C9.75137 16.1045 9.65412 16.0908 9.57054 16.1561C9.55307 16.1698 9.46493 16.2382 9.47785 16.3415C9.48773 16.4228 9.55687 16.4912 9.62145 16.4973C9.65108 16.5003 9.68299 16.4904 9.70882 16.4821C9.74377 16.4715 9.75745 16.4608 9.80228 16.4471C9.83723 16.4373 9.8547 16.4319 9.87066 16.4388C9.89877 16.4502 9.91929 16.4866 9.91169 16.5155C9.90561 16.5391 9.88206 16.5512 9.84787 16.5664C9.80456 16.5854 9.74301 16.6097 9.66476 16.6333L9.66628 16.6325Z" fill="#FBF5E2"/>
<path d="M9.97098 16.0491C9.92919 16.0772 9.88741 16.1053 9.84562 16.1334L9.77344 16.0422L10.1435 15.809L10.1966 15.9001C10.1518 15.929 10.1077 15.9579 10.0629 15.9867C10.1511 16.119 10.2392 16.2512 10.3273 16.3834C10.2969 16.4039 10.2665 16.4244 10.2361 16.4449L9.97022 16.0483L9.97098 16.0491Z" fill="#FBF5E2"/>
<path d="M10.1883 15.7854C10.2969 15.9411 10.4048 16.0969 10.5134 16.2526L10.594 16.2002L10.4785 16.0217L10.5613 15.9609L10.8181 16.0634L10.8789 15.9875L10.6457 15.8743C10.6487 15.8682 10.6912 15.7823 10.6426 15.698C10.6084 15.6387 10.5438 15.6038 10.4747 15.6068C10.379 15.6668 10.2832 15.7269 10.1875 15.7861L10.1883 15.7854Z" fill="#FBF5E2"/>
<path d="M10.3281 15.8059L10.4163 15.9351C10.455 15.91 10.4938 15.8842 10.5325 15.8591C10.5614 15.837 10.5697 15.7975 10.5545 15.7664C10.5378 15.7337 10.4983 15.7178 10.4626 15.7307C10.4178 15.7557 10.373 15.7808 10.3281 15.8059Z" fill="#111214"/>
<path d="M10.6172 15.4913L10.7228 15.4328L10.931 15.7618C10.9386 15.7694 10.9591 15.7876 10.991 15.7914C11.0449 15.7975 11.0807 15.7527 11.0837 15.7489C11.1133 15.7109 11.1141 15.6547 11.086 15.6076L10.9021 15.3158L10.9857 15.2611L11.1787 15.5703C11.2243 15.676 11.2068 15.7884 11.1407 15.8461C11.0867 15.8925 11.0153 15.891 10.9978 15.891C10.9105 15.8895 10.852 15.8385 10.8368 15.8249C10.7638 15.7139 10.6909 15.6038 10.6179 15.4928L10.6172 15.4913Z" fill="#FBF5E2"/>
<path d="M11.6552 14.964C11.6119 14.9937 11.5686 15.024 11.5253 15.0537L11.4531 14.9625L11.8231 14.7292L11.8763 14.8204C11.833 14.8485 11.789 14.8766 11.7456 14.9048L12.007 15.3036C11.9774 15.3242 11.9477 15.3454 11.9181 15.3659C11.83 15.2315 11.7426 15.097 11.6545 14.9633L11.6552 14.964Z" fill="#FBF5E2"/>
<path d="M17.1493 9.16007L18.5252 8.23237C18.295 7.99988 17.283 7.03039 15.7376 7.00836C14.6465 6.99316 13.8602 7.45815 13.5904 7.62227C13.3131 7.79094 12.5678 8.25897 12.0921 9.19882C11.6613 10.0505 11.6803 10.8377 11.6917 11.15C11.7366 12.3808 12.5579 13.5402 14.2005 15.8583C14.2803 15.9708 14.4452 16.2352 14.7491 16.4943C14.8471 16.5779 15.2019 16.9122 15.6639 17.1431C16.5924 17.6081 17.5565 17.4858 17.8589 17.4349C19.2303 17.2062 20.0273 16.2838 20.2416 16.0278C21.0227 15.0955 21.1837 14.0607 21.1997 13.6101C21.2179 13.0927 21.126 12.7257 21.126 12.7257C21.0713 12.5077 20.9254 12.0814 20.9254 12.0814L19.5882 12.9613C19.649 13.1976 19.7318 13.6603 19.5836 14.1982C19.3906 14.8987 18.8558 15.5408 18.1636 15.7793C17.1713 16.1212 16.2284 15.5073 15.7771 15.2133C13.8526 13.9596 12.6643 11.0573 13.6687 9.56428C13.9627 9.1274 14.5197 8.68141 15.1624 8.61075C16.0848 8.50894 17.1485 9.15931 17.1485 9.15931L17.1493 9.16007Z" fill="#FBC000"/>
<path d="M18.4939 9.07422L20.1723 9.04535C20.2794 9.05067 20.6122 9.07954 20.9153 9.33559C21.261 9.62735 21.3279 10.011 21.3423 10.1083C21.3735 10.2367 21.4168 10.4851 21.3507 10.786C21.2869 11.0793 21.1501 11.2829 21.0688 11.387C20.9731 11.4926 20.834 11.6218 20.6433 11.7358C20.5377 11.7988 20.4367 11.8444 20.3478 11.8771C20.2862 11.893 20.2255 11.9097 20.1639 11.9257C19.9618 11.9515 19.7491 11.9728 19.5265 11.9865C19.0858 12.0138 18.677 12.0093 18.307 11.9865C18.2097 11.9827 17.7972 11.9568 17.4507 11.6203C17.1043 11.2844 17.0655 10.8726 17.0587 10.7754C17.0404 10.6272 17.0169 10.2694 17.2129 9.89859C17.2395 9.84844 17.3709 9.60607 17.6452 9.39941C17.6938 9.36294 17.8686 9.2353 18.133 9.14944C18.2751 9.10309 18.4004 9.08334 18.4931 9.07422H18.4939Z" fill="#FBF5E2"/>
<path d="M18.482 9.68656C18.798 9.65693 20.0144 9.65237 20.0965 9.65161C20.1558 9.65845 20.4338 9.69568 20.6246 9.93881C20.737 10.0832 20.7674 10.2336 20.7773 10.3088C20.7811 10.3461 20.7833 10.3848 20.7841 10.4266C20.7841 10.6029 20.7431 10.7518 20.699 10.862C20.6565 10.9432 20.5759 11.0679 20.4354 11.1757C20.3647 11.2297 20.2956 11.2669 20.2378 11.292C20.1831 11.3064 20.1284 11.3209 20.0745 11.3353C19.8374 11.3558 19.5928 11.3725 19.3405 11.3854C19.0533 11.3999 18.7745 11.4075 18.5063 11.4098C18.4348 11.4098 18.2107 11.4014 17.9987 11.2396C17.7807 11.0732 17.7146 10.8513 17.6963 10.7753C17.6394 10.5459 17.6963 10.3575 17.7222 10.2853C17.7503 10.2047 17.8202 10.0421 17.9813 9.90234C18.0299 9.85979 18.1499 9.76482 18.3277 9.71543C18.3961 9.69644 18.4523 9.69036 18.4827 9.68732L18.482 9.68656Z" fill="#111214"/>
<path d="M11.56 15.3545L11.6208 15.309C11.6626 15.3713 11.6649 15.451 11.6269 15.5141C11.5775 15.5962 11.481 15.6038 11.4651 15.6053C11.4195 15.6091 11.3822 15.5977 11.3617 15.5893C11.3146 15.565 11.2409 15.5164 11.1877 15.4305C11.1589 15.3834 11.1247 15.328 11.1345 15.255C11.1429 15.192 11.1817 15.1274 11.2462 15.0939C11.3237 15.0537 11.4217 15.0673 11.4924 15.1274L11.4468 15.1768C11.3822 15.1327 11.3078 15.1319 11.266 15.1676C11.2166 15.2102 11.2333 15.2892 11.2402 15.3204C11.2592 15.41 11.3336 15.5118 11.4309 15.5141C11.4423 15.5141 11.5198 15.5164 11.554 15.4586C11.5798 15.4146 11.5638 15.3652 11.56 15.3553V15.3545Z" fill="#FBF5E2"/>
<path d="M12.1794 14.5887C12.3701 14.6039 12.5448 14.847 12.481 14.9929C12.4483 15.0666 12.3587 15.1084 12.2819 15.113C12.1611 15.1198 12.0821 15.0324 12.0517 14.9975C11.9925 14.9314 11.9028 14.7832 11.9682 14.6776C12.013 14.6054 12.111 14.5834 12.1794 14.5895V14.5887Z" fill="#FBF5E2"/>
<path d="M12.3601 14.4375L12.6739 14.8994L12.7545 14.847L12.639 14.6685L12.7218 14.6077L12.9786 14.7103L13.0394 14.6343L12.8061 14.5211C12.8099 14.5104 12.8411 14.4238 12.7947 14.3562C12.7453 14.2833 12.6238 14.2589 12.5182 14.3228C12.465 14.3615 12.4126 14.3995 12.3594 14.4382L12.3601 14.4375Z" fill="#FBF5E2"/>
<path d="M12.1059 14.7042C12.1241 14.6981 12.1606 14.6882 12.2009 14.7012C12.2107 14.7042 12.2373 14.7133 12.2875 14.7695C12.3429 14.8318 12.3938 14.8881 12.3771 14.9412C12.3695 14.9648 12.3521 14.98 12.3445 14.9861C12.3087 15.0157 12.2662 15.0134 12.2533 15.0134C12.1879 15.0104 12.1446 14.9625 12.1203 14.9359C12.0998 14.9131 12.0231 14.8288 12.0542 14.7566C12.0656 14.73 12.0884 14.7133 12.1059 14.7042Z" fill="#111214"/>
<path d="M12.4844 14.4527L12.5725 14.5819L12.6888 14.5059C12.7161 14.4808 12.7245 14.4428 12.7108 14.4132C12.6933 14.376 12.6439 14.3577 12.5999 14.3782L12.4844 14.4519V14.4527Z" fill="#111214"/>
</g>
<defs>
<clipPath id="clip0_5239_3505">
<rect width="26" height="26" fill="white"/>
</clipPath>
</defs>
</svg>
