<?xml version="1.0" encoding="UTF-8"?><svg xmlns="http://www.w3.org/2000/svg" viewBox="0 0 330.04 330.04"><defs><style>.e{fill:#fff;}.f{fill:#e30613;}.g{stroke:#1d1d1b;stroke-miterlimit:10;}.g,.h{fill:#1d1d1b;}.i{fill:#ffed00;}</style></defs><g id="a"/><g id="b"><g id="c"><g id="d"><circle class="g" cx="165.02" cy="165.02" r="164.52"/><path class="e" d="M38.11,151.64l2.45-1.81c1.3,1.74,2.61,3.48,3.91,5.21,.16-.55,.48-1.37,1.09-2.22,.12-.17,.47-.63,1.03-1.14,.71-.65,2.08-1.89,4.13-2.06,1.54-.13,2.7,.41,2.98,.54,.65,.31,1.12,.7,1.42,.99l5.24,7.78-2.43,1.62s-2.63-6.33-5.5-7.53c-.32-.13-2.76-1.11-4.7,.29-1.85,1.33-1.82,3.79-1.82,4.07l5.18,7.68c-.81,.59-1.62,1.17-2.43,1.76"/><path class="e" d="M58.15,148.99c.95-.44,1.89-.87,2.84-1.31-.03-.41-.11-2.35,1.31-3.93,.35-.38,1.31-1.42,2.92-1.58,1.66-.16,2.85,.72,3.12,.93-3.33,2.14-5.23,4.45-6.26,5.94-1.81,2.64-1.57,3.68-1.37,4.1,.17,.36,.83,1.36,1.95,2.17h0c1.42,1.02,5.43-.26,7.76-3.04l2.16-3.27,1.36,.92,2.85-1.74s-1.47-.57-2.75-2.43c-2.07-3-2.27-4.96-4.3-6.07-1.34-.74-2.73-.52-3.98-.33-3.64,.56-5.99,3.31-6.88,5.09-.56,1.13-.74,2.27-.74,2.27-.15,.94-.08,1.73,0,2.27Z"/><path class="h" d="M69.66,144.99s1.49,1.83,1.2,2.94-1.49,2.66-1.49,2.66c0,0-.94,1.18-1.64,1.61s-2.22,.75-2.62,.54-1.26-.78-1.34-1.34,.11-.78,.88-1.61,5.01-4.8,5.01-4.8Z"/><path class="e" d="M72.05,135.18l2.67-1.91,7.64,11.23c-.88,.6-1.77,1.21-2.65,1.81-2.55-3.71-5.1-7.42-7.65-11.13Z"/><polygon class="e" points="70.89 133.11 73.31 131.56 71.79 129.24 69.31 130.91 70.89 133.11"/><path class="e" d="M85.9,142.05l2.52-1.78-4.74-7c-.08-.26-.49-1.74,.36-3.16,.74-1.24,2.15-1.97,3.66-1.92-.33-.69-.67-1.38-1-2.08-.58,.07-1.03,.21-1.34,.32-.17,.06-2.84,1.1-3.54,3.64-.1,.37-.14,.69-.16,.89l-1.01-1.55-2.34,1.74,7.58,10.88Z"/><polygon class="e" points="95.76 141.63 94.58 139.99 126.87 118.82 127.87 120.4 95.76 141.63"/><path class="e" d="M125.3,109.03l10.49-7.28c-.46-.83-1.44-2.29-3.21-3.07-3.64-1.59-7.38,1.12-8.17,1.69-1.01,.73-2.68,1.94-3.32,4.23-.08,.29-.99,3.75,1.43,6.45,1.82,2.03,4.42,2.39,6.13,2.14,1.07-.16,1.93-.59,2.77-1,.68-.34,1.87-.94,3.07-2.12,.99-.97,2.43-2.39,2.55-4.3,0,0,0-.09-.06-2.28h0l-3.25,1.48c.12,.54,.21,1.36-.06,2.25-.72,2.37-3.68,4.1-6.13,3.38-.44-.13-1.37-.48-2.24-1.56Z"/><path class="h" d="M124.33,107.37l7.51-5.22c-.25-.32-.64-.73-1.23-1.04-1.61-.86-3.58-.36-4.84,.52-.29,.2-2.27,1.63-2.13,3.82,.06,.88,.43,1.55,.69,1.92Z"/><path class="f" d="M132.28,92.71c.1-.28,.54-1.35,1.61-1.74,.77-.29,1.48-.07,1.99,.1,1.89,.61,1.91,1.82,3.69,2.56,.22,.09,2.1,.81,3.19,0,0,0,1.02-.76,.28-7.95-.03-.09-.27-.83,.16-1.43,.31-.44,.78-.54,1.01-.59,0,0,1.02-.2,2.24,.73,1.43,1.09,1.58,4.66,.48,8.94,1.18,.09,2.15,.29,2.89,.48,2.82,.74,5.43,2.25,5.43,2.25,1.06,.49,1.7,1.46,1.61,2.39-.09,.88-.86,1.44-.94,1.49-2.4,1.66-6.97-3.17-8.9-1.85-1.94,1.32,1.17,7.19-1.28,9.1-.9,.7-2.28,.65-3.11,.15-1.82-1.07-2.23-4.88-.23-9.44-3.07,.02-5.32-.62-6.67-1.13-1.96-.74-2.7-1.45-3.1-2.25-.33-.68-.36-1.34-.32-1.8Z"/><path class="e" d="M153.81,83.06c.21-.53,1.7-4.12,5.46-5.23,.68-.2,3.29-.97,5.65,.52,2.92,1.84,2.91,5.56,2.9,6.06-.03,1.65-.62,2.91-1.01,3.59-.29,.51-1.27,2.14-3.15,2.96-1.64,.72-3.81,.74-3.84,.75h0l3.08,5.46-2.64,1.57-9.94-15.32,2.58-1.74,.91,1.39Z"/><path class="h" d="M158.11,80.37c.18-.09,2.16-1.07,4.22-.08,2.27,1.09,2.66,3.6,2.73,4.36,.05,.5,.2,2.18-.93,3.56-.69,.84-1.54,1.17-1.92,1.31-.36,.14-2.1,.74-3.93-.16,0,0-2.21-1.08-2.7-3.76-.05-.25-.12-.69-.08-1.25,.18-2.24,2.09-3.64,2.6-3.99Z"/><path class="e" d="M171.91,77.98l10.49-7.28c-.3-.58-1.24-2.23-3.21-3.07-1.93-.82-3.67-.38-4.73-.11-3.1,.78-4.96,2.94-5.68,3.87,0,0-.73,.98-1.09,2.16-.47,1.55-.48,4.32,1.43,6.45,1.83,2.04,4.44,2.39,6.13,2.14,1.07-.16,1.93-.59,2.77-1,1.51-.75,2.54-1.62,3.07-2.12,.55-.52,1.13-1.07,1.66-1.96,.35-.59,.78-1.31,.89-2.33,.13-1.26-.31-2.27-.59-2.79-.91,.66-1.82,1.32-2.72,1.99,.1,.43,.24,1.28-.06,2.25-.35,1.15-1.11,1.8-1.62,2.24-.43,.37-1.29,1.09-2.52,1.28-2.28,.34-4.02-1.47-4.23-1.69Z"/><path class="e" d="M189.36,74.03l2.52-1.78-4.74-7c-.08-.26-.48-1.73,.36-3.16,1.14-1.93,3.46-1.94,3.56-1.94-.52-.58-1.03-1.17-1.55-1.75-.2,0-2.59,.12-3.77,2.08-.6,1-.59,2-.56,2.45-.36-.51-.71-1.01-1.07-1.52l-2.34,1.74,7.58,10.88Z"/><path class="h" d="M170.93,76.32l7.51-5.22c-.49-.56-1.38-1.36-2.64-1.55-2.72-.4-5.66,2.33-5.56,4.84,.03,.81,.38,1.47,.69,1.92Z"/><path class="e" d="M192.36,56.68l-2.42-3.56c.68-.46,1.36-.91,2.04-1.37l2.44,3.49c.62-.43,1.24-.86,1.86-1.29,.43,.66,.85,1.33,1.28,1.99-.53,.36-1.05,.71-1.58,1.07,1.2,1.94,2.32,3.47,3.17,4.57,1.7,2.2,2.55,2.93,3.24,2.75,.66-.17,1.24-1.2,1.22-1.22,0,0-.06,.04-.12,.09l1.58,1.55c-.12,.25-.76,1.59-2.27,2.07-1.08,.34-2.01,.05-2.33-.05-1.18-.39-1.88-1.23-2.29-1.75-2.03-2.52-3.88-5.39-4.57-6.49l-1.72,1.23-1.55-1.86,2.02-1.22Z"/><path class="i" d="M58.52,185.39l-6.82-9.92,74.04-48.86,19.26,28.89s4.43,8.03,3.75,13.08-.46,6.57-2.68,10.17-2.75,4.89-5.58,7.03-5.58,3.97-8.48,5.12-5.43,1.91-8.48,2.06-6.27,.31-8.33-.38-7.11-3.75-7.11-3.75l-21.48,36.84-7.8-11.46,20.94-35.08-10.01-14.22-31.22,20.48Z"/><path class="h" d="M100.26,158.33l22.2-15.06,13.15,19.8c.46,1.23,1.73,5.11,0,9.1-1.26,2.91-3.51,4.44-5.5,5.81-1.8,1.23-4.1,2.81-7.34,3.06-5.04,.39-8.79-2.71-9.78-3.59-4.24-6.37-8.48-12.74-12.72-19.11Z"/><polygon class="i" points="123.75 279.31 94 236.29 167.21 188.25 196.21 231.53 186.24 238.24 163.48 204.71 142.04 218.69 161.24 247.36 151.21 253.78 131.78 225.67 111.03 239.1 134.01 272.46 123.75 279.31"/><path class="e" d="M88.81,227.49l4.13,6.08,1.06-.69-1.52-2.35,1.09-.8,3.38,1.35,.8-1-3.07-1.49c.05-.14,.46-1.28-.15-2.17-.65-.96-2.25-1.28-3.64-.44-.7,.51-1.39,1.01-2.09,1.52Z"/><path class="h" d="M90.52,227.69l1.16,1.7,1.53-1c.36-.33,.47-.83,.29-1.22-.23-.49-.88-.73-1.46-.46l-1.52,.97Z"/><path class="e" d="M94.69,223.54l4.27,6.22,4.39-2.89-.8-.95-2.98,1.92-.97-1.46c.83-.59,1.66-1.19,2.49-1.78l-.68-1.06-2.64,1.83-1.12-1.58c1.07-.7,2.13-1.4,3.2-2.1l-.68-1-4.47,2.84Z"/><path class="e" d="M106.64,221.79l.8-.6c.55,.82,.58,1.87,.08,2.7-.65,1.08-1.92,1.18-2.13,1.2-.6,.05-1.09-.1-1.36-.21-.62-.32-1.59-.96-2.29-2.09-.38-.62-.83-1.35-.7-2.31,.11-.83,.62-1.68,1.47-2.12,1.02-.53,2.31-.35,3.24,.44l-.6,.65c-.85-.58-1.83-.59-2.38-.12-.65,.56-.43,1.6-.34,2.01,.25,1.18,1.23,2.52,2.51,2.55,.15,0,1.17,.03,1.62-.73,.34-.58,.13-1.23,.08-1.36Z"/><path class="e" d="M109.61,214.28c2.51,.2,4.81,3.4,3.97,5.32-.43,.97-1.61,1.52-2.62,1.58-1.59,.09-2.63-1.06-3.03-1.52-.78-.87-1.96-2.82-1.1-4.21,.59-.95,1.88-1.24,2.78-1.16Z"/><path class="h" d="M108.65,215.8c.24-.08,.72-.21,1.25-.04,.13,.04,.48,.16,1.14,.9,.73,.82,1.4,1.56,1.18,2.26-.1,.31-.33,.51-.43,.59-.47,.39-1.03,.36-1.2,.36-.86-.04-1.43-.67-1.75-1.02-.27-.3-1.28-1.41-.87-2.36,.15-.35,.45-.57,.68-.69Z"/><path class="e" d="M115.83,218.76c.44-.28,.88-.56,1.32-.84l-3.14-4.12,5.93,2.32,1.09-.64-4.44-6.36-1.29,.67,3.1,4.27-5.85-2.35-1.38,.75c1.55,2.1,3.11,4.2,4.66,6.3Z"/><path class="e" d="M121.1,212.83l.3,1.52c.57-.06,1.55-.24,2.57-.86,.84-.5,1.95-1.17,2.03-2.33,.06-.79-.35-1.7-1.05-2.05-.5-.25-1.01-.14-1.89,.04-1.27,.26-1.62,.67-2.22,.45-.42-.15-.82-.56-.82-.96,.01-.84,1.65-1.3,1.82-1.35,.33-.09,.62-.13,.84-.14l-.22-1.23c-.24-.04-1.52-.22-2.62,.64-.23,.18-1.39,1.08-1.22,2.44,.13,1.07,1.04,1.97,1.89,2.05,.39,.04,.81-.09,1.15-.2,.46-.14,.64-.28,1.23-.46,.46-.13,.69-.2,.9-.11,.37,.15,.64,.63,.54,1.01-.08,.31-.39,.47-.84,.67-.57,.25-1.38,.57-2.41,.88Z"/><path class="e" d="M125.16,205.15c-.55,.37-1.1,.74-1.65,1.11l-.95-1.2,4.87-3.07,.7,1.2c-.59,.38-1.17,.76-1.76,1.14,1.16,1.74,2.32,3.48,3.48,5.22-.4,.27-.8,.54-1.2,.81l-3.5-5.22Z"/><path class="e" d="M127.98,201.68c1.43,2.05,2.85,4.1,4.28,6.15l1.06-.69-1.52-2.35,1.09-.8,3.38,1.35,.8-1-3.07-1.49c.04-.08,.6-1.21-.04-2.32-.45-.78-1.3-1.24-2.21-1.2-1.26,.79-2.52,1.58-3.78,2.36Z"/><path class="h" d="M129.84,201.95l1.16,1.7c.51-.33,1.02-.67,1.53-1,.38-.29,.49-.81,.29-1.22-.22-.43-.74-.64-1.21-.47-.59,.33-1.18,.66-1.77,.99Z"/><path class="e" d="M133.67,197.81l1.39-.77,2.74,4.33c.1,.1,.37,.34,.79,.39,.71,.08,1.18-.51,1.22-.56,.39-.5,.4-1.24,.03-1.86l-2.42-3.84,1.1-.72,2.54,4.07c.6,1.39,.37,2.87-.5,3.63-.71,.61-1.65,.59-1.88,.59-1.15-.02-1.92-.69-2.12-.87-.96-1.46-1.92-2.91-2.88-4.37Z"/><path class="e" d="M147.39,190.87c-.57,.39-1.14,.79-1.71,1.18l-.95-1.2,4.87-3.07,.7,1.2c-.57,.37-1.15,.74-1.72,1.11l3.44,5.25c-.39,.27-.78,.55-1.17,.82-1.16-1.77-2.31-3.54-3.47-5.3Z"/><path class="i" d="M219.66,114.48l18.11-12.21c-3.03-3.06-16.35-15.82-36.69-16.11-14.36-.2-24.71,5.92-28.26,8.08-3.65,2.22-13.46,8.38-19.72,20.75-5.67,11.21-5.42,21.57-5.27,25.68,.59,16.2,11.4,31.46,33.02,61.97,1.05,1.48,3.22,4.96,7.22,8.37,1.29,1.1,5.96,5.5,12.04,8.54,12.22,6.12,24.91,4.51,28.89,3.84,18.05-3.01,28.54-15.15,31.36-18.52,10.28-12.27,12.4-25.89,12.61-31.82,.24-6.81-.97-11.64-.97-11.64-.72-2.87-2.64-8.48-2.64-8.48l-17.6,11.58c.8,3.11,1.89,9.2-.06,16.28-2.54,9.22-9.58,17.67-18.69,20.81-13.06,4.5-25.47-3.58-31.41-7.45-25.33-16.5-40.97-54.7-27.75-74.35,3.87-5.75,11.2-11.62,19.66-12.55,12.14-1.34,26.14,7.22,26.14,7.22Z"/><path class="e" d="M237.37,113.35l22.09-.38c1.41,.07,5.79,.45,9.78,3.82,4.55,3.84,5.43,8.89,5.62,10.17,.41,1.69,.98,4.96,.11,8.92-.84,3.86-2.64,6.54-3.71,7.91-1.26,1.39-3.09,3.09-5.6,4.59-1.39,.83-2.72,1.43-3.89,1.86-.81,.21-1.61,.43-2.42,.64-2.66,.34-5.46,.62-8.39,.8-5.8,.36-11.18,.3-16.05,0-1.28-.05-6.71-.39-11.27-4.82-4.56-4.42-5.07-9.84-5.16-11.12-.24-1.95-.55-6.66,2.03-11.54,.35-.66,2.08-3.85,5.69-6.57,.64-.48,2.94-2.16,6.42-3.29,1.87-.61,3.52-.87,4.74-.99Z"/><path class="h" d="M237.18,121.41c4.16-.39,20.17-.45,21.25-.46,.78,.09,4.44,.58,6.95,3.78,1.48,1.9,1.88,3.88,2.01,4.87,.05,.49,.08,1,.09,1.55,0,2.32-.54,4.28-1.12,5.73-.56,1.07-1.62,2.71-3.47,4.13-.93,.71-1.84,1.2-2.6,1.53-.72,.19-1.44,.38-2.15,.57-3.12,.27-6.34,.49-9.66,.66-3.78,.19-7.45,.29-10.98,.32-.94,0-3.89-.11-6.68-2.24-2.87-2.19-3.74-5.11-3.98-6.11-.75-3.02,0-5.5,.34-6.45,.37-1.06,1.29-3.2,3.41-5.04,.64-.56,2.22-1.81,4.56-2.46,.9-.25,1.64-.33,2.04-.37Z"/><path class="e" d="M146.06,196.01l.8-.6c.55,.82,.58,1.87,.08,2.7-.65,1.08-1.92,1.18-2.13,1.2-.6,.05-1.09-.1-1.36-.21-.62-.32-1.59-.96-2.29-2.09-.38-.62-.83-1.35-.7-2.31,.11-.83,.62-1.68,1.47-2.12,1.02-.53,2.31-.35,3.24,.44l-.6,.65c-.85-.58-1.83-.59-2.38-.12-.65,.56-.43,1.6-.34,2.01,.25,1.18,1.23,2.52,2.51,2.55,.15,0,1.17,.03,1.62-.73,.34-.58,.13-1.23,.08-1.36Z"/><path class="e" d="M154.25,185.93c2.51,.2,4.81,3.4,3.97,5.32-.43,.97-1.61,1.52-2.62,1.58-1.59,.09-2.63-1.06-3.03-1.52-.78-.87-1.96-2.82-1.1-4.21,.59-.95,1.88-1.24,2.78-1.16Z"/><path class="e" d="M156.55,183.94l4.13,6.08,1.06-.69-1.52-2.35,1.09-.8,3.38,1.35,.8-1-3.07-1.49c.05-.14,.46-1.28-.15-2.17-.65-.96-2.25-1.28-3.64-.44-.7,.51-1.39,1.01-2.09,1.52Z"/><path class="h" d="M153.29,187.45c.24-.08,.72-.21,1.25-.04,.13,.04,.48,.16,1.14,.9,.73,.82,1.4,1.56,1.18,2.26-.1,.31-.33,.51-.43,.59-.47,.39-1.03,.36-1.2,.36-.86-.04-1.43-.67-1.75-1.02-.27-.3-1.28-1.41-.87-2.36,.15-.35,.45-.57,.68-.69Z"/><path class="h" d="M158.26,184.14l1.16,1.7,1.53-1c.36-.33,.47-.83,.29-1.22-.23-.49-.88-.73-1.46-.46l-1.52,.97Z"/></g></g></g></svg>