<svg width="115" height="115" viewBox="0 0 115 115" fill="none" xmlns="http://www.w3.org/2000/svg">
<path d="M39.5609 68.4166H19.3105C18.1661 68.4171 17.0507 68.7773 16.1222 69.4463C15.1936 70.1153 14.4988 71.0592 14.136 72.1447L3.19753 104.895C2.9233 105.715 2.84801 106.589 2.97785 107.444C3.1077 108.3 3.43897 109.112 3.94434 109.814C4.44972 110.516 5.11473 111.088 5.88455 111.482C6.65438 111.877 7.50696 112.083 8.37203 112.083H106.622C107.486 112.083 108.338 111.877 109.108 111.482C109.877 111.088 110.541 110.517 111.047 109.815C111.552 109.114 111.883 108.303 112.014 107.448C112.144 106.594 112.07 105.72 111.797 104.9L100.88 72.1501C100.518 71.0628 99.8225 70.117 98.8928 69.4469C97.963 68.7768 96.846 68.4164 95.6999 68.4166H75.4386M90.247 35.6666C90.247 55.3876 69.1287 76.2166 60.8102 83.6727C59.8586 84.3995 58.6944 84.7933 57.497 84.7933C56.2996 84.7933 55.1354 84.3995 54.1838 83.6727C45.8708 76.2166 24.747 55.3876 24.747 35.6666C24.747 26.9808 28.1975 18.6507 34.3393 12.5089C40.4811 6.36706 48.8112 2.91663 57.497 2.91663C66.1829 2.91663 74.513 6.36706 80.6548 12.5089C86.7966 18.6507 90.247 26.9808 90.247 35.6666ZM68.4137 35.6666C68.4137 41.6957 63.5261 46.5833 57.497 46.5833C51.4679 46.5833 46.5804 41.6957 46.5804 35.6666C46.5804 29.6375 51.4679 24.75 57.497 24.75C63.5261 24.75 68.4137 29.6375 68.4137 35.6666Z" stroke="url(#paint0_linear_5679_2512)" stroke-opacity="0.3" stroke-width="5" stroke-linecap="round" stroke-linejoin="round"/>
<defs>
<linearGradient id="paint0_linear_5679_2512" x1="9.46563" y1="6.19163" x2="110.991" y2="112.077" gradientUnits="userSpaceOnUse">
<stop stop-color="#FBC000"/>
<stop offset="0.301011" stop-color="#FBC000" stop-opacity="0.26"/>
<stop offset="0.625955" stop-color="#FBC000" stop-opacity="0.74"/>
<stop offset="0.958735" stop-color="#FBC000" stop-opacity="0.07"/>
</linearGradient>
</defs>
</svg>
