<svg width="131" height="131" viewBox="0 0 131 131" fill="none" xmlns="http://www.w3.org/2000/svg">
<path d="M87.3362 38.2059C87.3362 35.1913 89.78 32.7475 92.7945 32.7475C95.8091 32.7475 98.2529 35.1913 98.2529 38.2059C98.2529 41.2204 95.8091 43.6642 92.7945 43.6642C89.78 43.6642 87.3362 41.2204 87.3362 38.2059Z" fill="url(#paint0_linear_5785_4263)" fill-opacity="0.3"/>
<path fill-rule="evenodd" clip-rule="evenodd" d="M65.5029 39.5705C51.1837 39.5705 39.5758 51.1784 39.5758 65.4975C39.5758 79.8167 51.1837 91.4246 65.5029 91.4246C79.822 91.4246 91.4299 79.8167 91.4299 65.4975C91.4299 51.1784 79.822 39.5705 65.5029 39.5705ZM47.7633 65.4975C47.7633 55.7002 55.7055 47.758 65.5029 47.758C75.3002 47.758 83.2424 55.7002 83.2424 65.4975C83.2424 75.2948 75.3002 83.2371 65.5029 83.2371C55.7055 83.2371 47.7633 75.2948 47.7633 65.4975Z" fill="url(#paint1_linear_5785_4263)" fill-opacity="0.3"/>
<path fill-rule="evenodd" clip-rule="evenodd" d="M94.2042 15.4611C75.2824 13.3463 55.7234 13.3463 36.8017 15.4611C25.8192 16.6885 16.953 25.3401 15.6619 36.3797C13.3992 55.7257 13.3992 75.2694 15.6619 94.6154C16.953 105.655 25.8192 114.307 36.8017 115.534C55.7234 117.649 75.2824 117.649 94.2042 115.534C105.187 114.307 114.053 105.655 115.344 94.6154C117.607 75.2694 117.607 55.7257 115.344 36.3797C114.053 25.3401 105.187 16.6885 94.2042 15.4611ZM37.7111 23.5979C56.0284 21.5507 74.9774 21.5507 93.2948 23.5979C100.555 24.4094 106.371 30.1385 107.212 37.3308C109.401 56.0448 109.401 74.9502 107.212 93.6643C106.371 100.857 100.555 106.586 93.2948 107.397C74.9774 109.444 56.0284 109.444 37.7111 107.397C30.4509 106.586 24.6351 100.857 23.7939 93.6643C21.6051 74.9502 21.6051 56.0449 23.7939 37.3308C24.6351 30.1385 30.4509 24.4094 37.7111 23.5979Z" fill="url(#paint2_linear_5785_4263)" fill-opacity="0.3"/>
<defs>
<linearGradient id="paint0_linear_5785_4263" x1="20.1494" y1="16.9724" x2="116.174" y2="116.963" gradientUnits="userSpaceOnUse">
<stop stop-color="#FBC000"/>
<stop offset="0.301011" stop-color="#FBC000" stop-opacity="0.26"/>
<stop offset="0.625955" stop-color="#FBC000" stop-opacity="0.74"/>
<stop offset="0.958735" stop-color="#FBC000" stop-opacity="0.07"/>
</linearGradient>
<linearGradient id="paint1_linear_5785_4263" x1="20.1494" y1="16.9724" x2="116.174" y2="116.963" gradientUnits="userSpaceOnUse">
<stop stop-color="#FBC000"/>
<stop offset="0.301011" stop-color="#FBC000" stop-opacity="0.26"/>
<stop offset="0.625955" stop-color="#FBC000" stop-opacity="0.74"/>
<stop offset="0.958735" stop-color="#FBC000" stop-opacity="0.07"/>
</linearGradient>
<linearGradient id="paint2_linear_5785_4263" x1="20.1494" y1="16.9724" x2="116.174" y2="116.963" gradientUnits="userSpaceOnUse">
<stop stop-color="#FBC000"/>
<stop offset="0.301011" stop-color="#FBC000" stop-opacity="0.26"/>
<stop offset="0.625955" stop-color="#FBC000" stop-opacity="0.74"/>
<stop offset="0.958735" stop-color="#FBC000" stop-opacity="0.07"/>
</linearGradient>
</defs>
</svg>
