<svg width="114" height="115" viewBox="0 0 114 115" fill="none" xmlns="http://www.w3.org/2000/svg">
<path d="M111.091 84.355V100.73C111.097 102.25 110.786 103.755 110.177 105.148C109.568 106.541 108.675 107.791 107.555 108.819C106.434 109.846 105.112 110.629 103.672 111.116C102.232 111.603 100.706 111.783 99.192 111.647C82.3958 109.822 66.2618 104.082 52.0865 94.8896C38.8983 86.5092 27.7169 75.3279 19.3365 62.1396C10.1118 47.8999 4.37112 31.6875 2.57946 14.8158C2.44306 13.3064 2.62244 11.7852 3.10619 10.3489C3.58994 8.91258 4.36745 7.59276 5.38922 6.47343C6.411 5.3541 7.65464 4.45979 9.04099 3.84743C10.4273 3.23508 11.926 2.91809 13.4415 2.91667H29.8165C32.4655 2.8906 35.0336 3.82864 37.0421 5.55595C39.0506 7.28326 40.3625 9.68198 40.7332 12.305C41.4244 17.5454 42.7061 22.6907 44.554 27.6429C45.2884 29.5966 45.4474 31.7198 45.012 33.7611C44.5767 35.8023 43.5653 37.6759 42.0978 39.16L35.1657 46.0921C42.936 59.7573 54.2505 71.0718 67.9157 78.8421L74.8478 71.91C76.3319 70.4425 78.2055 69.4311 80.2467 68.9958C82.288 68.5604 84.4112 68.7194 86.3649 69.4538C91.3171 71.3017 96.4624 72.5834 101.703 73.2746C104.354 73.6486 106.776 74.9842 108.507 77.0272C110.238 79.0702 111.158 81.6781 111.091 84.355Z" stroke="url(#paint0_linear_5679_316)" stroke-opacity="0.3" stroke-width="5" stroke-linecap="round" stroke-linejoin="round"/>
<defs>
<linearGradient id="paint0_linear_5679_316" x1="9.04871" y1="6.17938" x2="110.218" y2="111.491" gradientUnits="userSpaceOnUse">
<stop stop-color="#FBC000"/>
<stop offset="0.301011" stop-color="#FBC000" stop-opacity="0.26"/>
<stop offset="0.625955" stop-color="#FBC000" stop-opacity="0.74"/>
<stop offset="0.958735" stop-color="#FBC000" stop-opacity="0.07"/>
</linearGradient>
</defs>
</svg>
