<svg width="131" height="131" viewBox="0 0 131 131" fill="none" xmlns="http://www.w3.org/2000/svg">
<path fill-rule="evenodd" clip-rule="evenodd" d="M31.5863 76.5238C31.8252 76.6042 32.0664 76.6614 32.3073 76.6964C32.5701 77.3138 32.9096 78.1126 33.3056 79.0466C34.2721 81.3262 35.5744 84.4092 36.9187 87.6255C39.6601 94.1848 42.4254 100.946 43.0361 102.881C43.7921 105.274 44.5913 106.901 45.4637 108.011C45.9148 108.585 46.4365 109.087 47.047 109.466C47.3543 109.657 47.6789 109.814 48.0178 109.931C48.0327 109.936 48.0476 109.941 48.0625 109.946C49.8093 110.606 51.4018 110.331 52.3989 109.995C52.9324 109.815 53.364 109.598 53.67 109.422C53.826 109.333 53.9577 109.249 54.0629 109.178L54.0877 109.162L69.5141 99.5415L87.3329 113.203C87.596 113.404 87.8826 113.573 88.1864 113.706C90.3271 114.64 92.4 114.966 94.3501 114.699C96.2966 114.434 97.8423 113.616 98.9927 112.695C100.119 111.794 100.883 110.784 101.359 110.034C101.602 109.651 101.784 109.312 101.913 109.053C101.977 108.922 102.029 108.81 102.069 108.72L102.121 108.6L102.14 108.554L102.149 108.534L102.152 108.525L102.156 108.516C102.249 108.282 102.321 108.04 102.37 107.792L118.637 25.7783C118.689 25.516 118.715 25.2493 118.715 24.9819C118.715 22.5801 117.81 20.2964 115.683 18.9105C113.864 17.7261 111.838 17.6751 110.558 17.7723C109.176 17.8771 107.901 18.2181 107.045 18.4905C106.599 18.6323 106.226 18.7691 105.956 18.8735C105.821 18.926 105.71 18.971 105.628 19.0053L105.565 19.0314L14.3364 54.8192L14.3246 54.8235C14.2665 54.8446 14.1918 54.8725 14.1031 54.907C13.9265 54.9758 13.6898 55.0727 13.4133 55.198C12.8741 55.4424 12.1177 55.8243 11.3415 56.3558C10.1014 57.205 7.24948 59.5309 7.72971 63.3697C8.11282 66.4322 10.2109 68.3131 11.4892 69.2176C12.1911 69.7142 12.8579 70.0694 13.3435 70.3006C13.5688 70.4078 14.0366 70.5978 14.2395 70.6803L14.2908 70.7011L31.5863 76.5238ZM108.758 26.5705L108.745 26.576C108.7 26.5957 108.654 26.6147 108.608 26.6328L17.2684 62.464C17.2207 62.4827 17.1726 62.5005 17.1243 62.5174L17.0734 62.5367C17.015 62.5595 16.9166 62.5994 16.7931 62.6554C16.7231 62.6871 16.65 62.7217 16.5755 62.7589C16.6779 62.8165 16.7759 62.8666 16.8629 62.9081C16.9465 62.9478 17.0102 62.975 17.0451 62.9894L34.1986 68.7642C34.5126 68.8699 34.8053 69.01 35.0739 69.1788L91.7138 36.0222L91.7667 35.9908C91.8082 35.9665 91.8622 35.9351 91.9272 35.8984C92.0561 35.8255 92.2332 35.7285 92.4439 35.6213C92.837 35.4212 93.4659 35.1242 94.1744 34.9053C94.6677 34.7528 96.1223 34.3233 97.6948 34.8277C98.6653 35.139 99.6702 35.8082 100.324 36.9419C100.648 37.5052 100.821 38.071 100.905 38.5889C101.128 39.4049 101.093 40.2105 100.918 40.9061C100.543 42.4045 99.4904 43.5732 98.5324 44.4672C97.7119 45.2336 87.0932 55.4726 76.6179 65.5802C71.394 70.6207 66.2233 75.6114 62.3586 79.3421L59.8202 81.7926L91.8712 106.365C92.6063 106.628 93.0408 106.615 93.2419 106.587C93.4814 106.555 93.6774 106.462 93.8777 106.302C94.1017 106.123 94.2975 105.881 94.4439 105.65L94.4499 105.641L110.227 26.0964C109.993 26.1527 109.756 26.2197 109.528 26.2924C109.27 26.3746 109.056 26.453 108.915 26.5077C108.845 26.5348 108.795 26.5554 108.767 26.5668L108.758 26.5705ZM62.5738 94.2205L56.1794 89.3181L54.63 99.1743L62.5738 94.2205ZM50.3134 79.5902L56.6723 73.4514C60.5372 69.7205 65.7083 64.7293 70.9328 59.6882L76.241 54.567L40.6525 75.4003L40.8435 75.8505C41.8135 78.1382 43.1216 81.2348 44.473 84.4683C45.4834 86.886 46.5401 89.4318 47.5026 91.7887L49.0475 81.9615C49.1964 81.014 49.6593 80.1938 50.3134 79.5902Z" fill="url(#paint0_linear_5785_4179)" fill-opacity="0.3"/>
<defs>
<linearGradient id="paint0_linear_5785_4179" x1="14.3382" y1="20.6511" x2="103.281" y2="126.792" gradientUnits="userSpaceOnUse">
<stop stop-color="#FBC000"/>
<stop offset="0.301011" stop-color="#FBC000" stop-opacity="0.26"/>
<stop offset="0.625955" stop-color="#FBC000" stop-opacity="0.74"/>
<stop offset="0.958735" stop-color="#FBC000" stop-opacity="0.07"/>
</linearGradient>
</defs>
</svg>
